<svg width="1552" height="474" viewBox="0 0 1552 474" fill="none" xmlns="http://www.w3.org/2000/svg">
<g clip-path="url(#clip0_32_14)">
<path d="M175.127 167.318C178.955 167.318 182.056 170.461 182.056 174.332V183.821H198.832V174.332C198.832 170.457 201.937 167.318 205.762 167.318H207.572V160.7H173.316V167.318H175.127Z" fill="url(#paint0_linear_32_14)"/>
<path d="M221.048 183.524H172.883V203.913H182.1V203.592C182.1 199.056 185.733 195.379 190.214 195.379H204.312V290.973H221.048V195.383H234.477C238.959 195.383 242.591 199.06 242.591 203.596V203.917H251.097V183.524H221.048Z" fill="url(#paint1_linear_32_14)"/>
<path d="M219.434 167.318C223.262 167.318 226.363 170.461 226.363 174.332V183.821H243.139V174.332C243.139 170.457 246.244 167.318 250.068 167.318H251.879V160.7H217.623V167.318H219.434Z" fill="url(#paint2_linear_32_14)"/>
<path d="M175.127 306.086C178.955 306.086 182.056 302.943 182.056 299.072V247.566H198.832V299.072C198.832 302.947 201.937 306.086 205.762 306.086H207.572V312.704H173.316V306.086H175.127Z" fill="url(#paint3_linear_32_14)"/>
<path d="M219.434 306.086C223.262 306.086 226.363 302.943 226.363 299.071V232.655H243.139V299.067C243.139 302.943 246.244 306.082 250.068 306.082H251.879V312.7H217.623V306.082H219.434V306.086Z" fill="url(#paint4_linear_32_14)"/>
<path d="M185.85 199.967H198.833V236.083H182.037V203.826C182.037 201.697 183.746 199.967 185.85 199.967Z" fill="url(#paint5_linear_32_14)"/>
<path d="M243.15 223.891L242.916 224.176C240.433 227.172 227.692 234.222 210.725 229.203C198.496 225.585 188.791 227.6 182.041 230.624V249.105L182.459 248.642C182.542 248.551 190.898 239.57 206.403 244.161C220.685 248.389 233.816 246.39 243.15 242.273V223.887V223.891Z" fill="url(#paint6_linear_32_14)"/>
<path d="M236.624 199.967H226.355V223.891H243.151V206.573C243.151 202.924 240.23 199.967 236.624 199.967Z" fill="url(#paint7_linear_32_14)"/>
</g>
<path d="M305.607 279.7V278.5L311.307 278.2C312.64 278.133 313.573 277.733 314.107 277C314.707 276.2 315.007 274.833 315.007 272.9V208.3H310.207C308.007 208.3 306.04 208.667 304.307 209.4C302.573 210.133 301.007 211.267 299.607 212.8C298.273 214.333 297.007 216.367 295.807 218.9C294.607 221.367 293.373 224.4 292.107 228L290.807 227.6L293.207 206.7H353.407L355.807 227.6L354.407 228C353.207 224.4 352.007 221.367 350.807 218.9C349.607 216.367 348.307 214.333 346.907 212.8C345.573 211.267 344.04 210.133 342.307 209.4C340.64 208.667 338.707 208.3 336.507 208.3H331.707V273.3C331.707 275.167 332.007 276.433 332.607 277.1C333.273 277.767 334.273 278.133 335.607 278.2L341.107 278.5V279.7H305.607ZM424.226 281.1C421.493 281.1 418.993 280.7 416.726 279.9C414.526 279.1 412.56 277.667 410.826 275.6C409.16 273.467 407.726 270.433 406.526 266.5L402.726 253.9C401.793 251.167 400.96 249.067 400.226 247.6C399.56 246.133 398.793 245.1 397.926 244.5C397.06 243.9 395.96 243.6 394.626 243.6C393.96 243.6 393.36 243.6 392.826 243.6C392.293 243.6 391.86 243.633 391.526 243.7V273.1C391.526 274.833 391.726 276.1 392.126 276.9C392.526 277.7 393.56 278.167 395.226 278.3L400.726 278.5V279.7H367.126V278.5L371.726 278.2C372.993 278.133 373.826 277.733 374.226 277C374.626 276.267 374.826 274.867 374.826 272.8V212.6C374.826 210.933 374.593 209.8 374.126 209.2C373.726 208.533 372.793 208.167 371.326 208.1L367.126 207.9V206.7H396.526C400.926 206.7 404.926 207 408.526 207.6C412.126 208.2 415.193 209.2 417.726 210.6C420.26 211.933 422.193 213.733 423.526 216C424.926 218.2 425.626 220.933 425.626 224.2C425.626 226.533 425.26 228.6 424.526 230.4C423.793 232.2 422.76 233.833 421.426 235.3C420.093 236.7 418.493 237.9 416.626 238.9C414.826 239.833 412.826 240.633 410.626 241.3C408.426 241.967 406.093 242.433 403.626 242.7V243C407.826 243.6 411.26 244.833 413.926 246.7C416.66 248.567 418.626 251.067 419.826 254.2L424.226 266.1C425.026 268.033 425.793 269.7 426.526 271.1C427.26 272.433 428.126 273.467 429.126 274.2C430.126 274.933 431.326 275.3 432.726 275.3C433.66 275.3 434.626 275.167 435.626 274.9C436.693 274.567 437.593 274.167 438.326 273.7L439.026 274.5C437.16 276.567 434.96 278.2 432.426 279.4C429.893 280.533 427.16 281.1 424.226 281.1ZM395.426 241.9C398.426 241.9 400.86 241.233 402.726 239.9C404.66 238.567 406.06 236.633 406.926 234.1C407.793 231.567 408.226 228.467 408.226 224.8C408.226 221.067 407.793 218 406.926 215.6C406.126 213.133 404.826 211.3 403.026 210.1C401.226 208.9 398.76 208.3 395.626 208.3H391.526V241.8C392.393 241.867 393.126 241.9 393.726 241.9C394.393 241.9 394.96 241.9 395.426 241.9ZM442.584 279.7V278.5L446.084 278C447.284 277.733 448.284 277.3 449.084 276.7C449.884 276.1 450.651 274.667 451.384 272.4L473.484 206.7H484.984L507.284 272.3C507.951 274.3 508.584 275.667 509.184 276.4C509.784 277.067 510.851 277.533 512.384 277.8L515.684 278.4V279.7H482.984V278.5L487.384 278C488.851 277.8 489.717 277.333 489.984 276.6C490.317 275.867 490.184 274.533 489.584 272.6L484.384 254.9H459.784L454.184 272.2C453.584 274.067 453.517 275.467 453.984 276.4C454.517 277.267 455.551 277.8 457.084 278L462.184 278.5V279.7H442.584ZM460.584 253.1H483.684L472.484 217.1H472.184L460.584 253.1ZM523.954 279.7V278.5L528.554 278.2C529.821 278.133 530.654 277.733 531.054 277C531.454 276.267 531.654 274.867 531.654 272.8V212.6C531.654 210.933 531.421 209.8 530.954 209.2C530.554 208.533 529.621 208.167 528.154 208.1L523.954 207.9V206.7H555.754C559.754 206.7 563.621 207.067 567.354 207.8C571.088 208.467 574.554 209.633 577.754 211.3C580.954 212.9 583.754 215.067 586.154 217.8C588.621 220.533 590.521 223.9 591.854 227.9C593.254 231.833 593.954 236.5 593.954 241.9C593.954 248.767 592.988 254.6 591.054 259.4C589.121 264.2 586.354 268.1 582.754 271.1C579.221 274.1 574.954 276.3 569.954 277.7C565.021 279.033 559.521 279.7 553.454 279.7H523.954ZM553.754 278.1C557.421 278.1 560.621 277.533 563.354 276.4C566.154 275.267 568.521 273.367 570.454 270.7C572.388 267.967 573.821 264.267 574.754 259.6C575.754 254.933 576.254 249.1 576.254 242.1C576.254 234.167 575.388 227.733 573.654 222.8C571.921 217.8 569.454 214.133 566.254 211.8C563.054 209.467 559.288 208.3 554.954 208.3H548.354V277.8C548.954 277.867 549.721 277.933 550.654 278C551.588 278.067 552.621 278.1 553.754 278.1ZM606.958 279.7V278.5L611.558 278.2C612.825 278.133 613.658 277.733 614.058 277C614.458 276.267 614.658 274.867 614.658 272.8V212.6C614.658 210.933 614.425 209.8 613.958 209.2C613.558 208.533 612.625 208.167 611.158 208.1L606.958 207.9V206.7H655.458L658.258 224.6L656.958 225C655.625 221.467 654.325 218.633 653.058 216.5C651.858 214.3 650.558 212.6 649.158 211.4C647.758 210.2 646.158 209.4 644.358 209C642.625 208.533 640.525 208.3 638.058 208.3H631.358V241.5H638.858C640.658 241.5 642.058 241.267 643.058 240.8C644.058 240.267 644.858 239.3 645.458 237.9C646.125 236.5 646.792 234.5 647.458 231.9L648.858 231.7V253.2L647.458 253.4C646.925 250.733 646.325 248.667 645.658 247.2C644.992 245.733 644.125 244.7 643.058 244.1C642.058 243.433 640.692 243.1 638.958 243.1H631.358V278.1H640.658C643.058 278.1 645.092 277.867 646.758 277.4C648.425 276.867 649.892 276 651.158 274.8C652.492 273.533 653.725 271.8 654.858 269.6C656.058 267.333 657.292 264.467 658.558 261H659.858L658.158 279.7H606.958ZM672.482 279.7V278.5L677.082 278.2C678.348 278.133 679.182 277.733 679.582 277C679.982 276.267 680.182 274.867 680.182 272.8V212.6C680.182 210.933 679.948 209.8 679.482 209.2C679.082 208.533 678.148 208.167 676.682 208.1L672.482 207.9V206.7H704.282V207.9L699.982 208.1C698.848 208.167 698.048 208.567 697.582 209.3C697.115 209.967 696.882 211.233 696.882 213.1V241.5H722.482V212.6C722.482 211.067 722.282 209.967 721.882 209.3C721.548 208.567 720.648 208.167 719.182 208.1L715.082 207.9V206.7H746.882V207.9L742.282 208.1C741.015 208.167 740.182 208.567 739.782 209.3C739.382 209.967 739.182 211.233 739.182 213.1V273.2C739.182 274.867 739.348 276.1 739.682 276.9C740.082 277.633 741.015 278.067 742.482 278.2L746.882 278.5V279.7H715.082V278.5L719.382 278.2C720.648 278.067 721.482 277.667 721.882 277C722.282 276.267 722.482 274.867 722.482 272.8V243.2H696.882V273.2C696.882 275.133 697.115 276.433 697.582 277.1C698.048 277.7 698.915 278.067 700.182 278.2L704.282 278.5V279.7H672.482ZM793.966 281.1C787.033 281.1 780.999 279.6 775.866 276.6C770.733 273.6 766.766 269.367 763.966 263.9C761.233 258.433 759.866 251.967 759.866 244.5C759.866 236.033 761.299 228.9 764.166 223.1C767.033 217.233 771.133 212.8 776.466 209.8C781.799 206.8 788.066 205.3 795.266 205.3C801.933 205.3 807.766 206.733 812.766 209.6C817.766 212.4 821.633 216.467 824.366 221.8C827.166 227.133 828.566 233.667 828.566 241.4C828.566 247.333 827.799 252.733 826.266 257.6C824.733 262.467 822.466 266.667 819.466 270.2C816.533 273.667 812.899 276.367 808.566 278.3C804.299 280.167 799.433 281.1 793.966 281.1ZM795.566 279.4C798.233 279.4 800.533 278.833 802.466 277.7C804.399 276.5 805.966 274.567 807.166 271.9C808.433 269.167 809.366 265.533 809.966 261C810.566 256.467 810.866 250.767 810.866 243.9C810.866 237.033 810.466 231.233 809.666 226.5C808.933 221.767 807.833 217.967 806.366 215.1C804.899 212.167 803.099 210.067 800.966 208.8C798.833 207.533 796.366 206.9 793.566 206.9C790.966 206.9 788.666 207.5 786.666 208.7C784.666 209.833 782.966 211.767 781.566 214.5C780.233 217.167 779.199 220.767 778.466 225.3C777.799 229.833 777.466 235.433 777.466 242.1C777.466 248.967 777.866 254.8 778.666 259.6C779.533 264.333 780.766 268.167 782.366 271.1C783.966 274.033 785.866 276.167 788.066 277.5C790.333 278.767 792.833 279.4 795.566 279.4ZM875.519 281.1C870.919 281.1 866.886 280.6 863.419 279.6C860.019 278.6 857.152 277.067 854.819 275C852.486 272.867 850.719 270.2 849.519 267C848.386 263.733 847.819 259.9 847.819 255.5V212.9C847.819 211.233 847.586 210.033 847.119 209.3C846.719 208.567 845.786 208.167 844.319 208.1L840.119 207.9V206.7H871.919V207.9L867.219 208.1C866.086 208.167 865.286 208.567 864.819 209.3C864.419 209.967 864.219 211.233 864.219 213.1V256.1C864.219 260.567 864.752 264.4 865.819 267.6C866.952 270.733 868.752 273.133 871.219 274.8C873.752 276.467 877.052 277.3 881.119 277.3C884.719 277.3 887.819 276.467 890.419 274.8C893.019 273.133 895.019 270.7 896.419 267.5C897.819 264.233 898.519 260.267 898.519 255.6V212.9C898.519 211.033 898.286 209.8 897.819 209.2C897.352 208.533 896.386 208.167 894.919 208.1L891.219 207.9V206.7H907.719V207.9L904.019 208.1C902.686 208.167 901.786 208.533 901.319 209.2C900.919 209.867 900.719 211.167 900.719 213.1V255.6C900.719 261.667 899.652 266.6 897.519 270.4C895.386 274.133 892.419 276.867 888.619 278.6C884.886 280.267 880.519 281.1 875.519 281.1ZM945.026 281.1C941.426 281.1 937.893 280.5 934.426 279.3C931.026 278.1 927.793 276.433 924.726 274.3L922.826 281H921.326L919.726 256.8L921.226 256.5C922.026 259.833 923.16 262.9 924.626 265.7C926.093 268.5 927.793 270.933 929.726 273C931.726 275.067 933.926 276.667 936.326 277.8C938.726 278.867 941.293 279.4 944.026 279.4C946.893 279.4 949.326 278.867 951.326 277.8C953.393 276.733 954.993 275.233 956.126 273.3C957.26 271.3 957.826 269 957.826 266.4C957.826 263.333 957.16 260.8 955.826 258.8C954.56 256.8 952.693 255.1 950.226 253.7C947.76 252.233 944.693 250.9 941.026 249.7C938.226 248.767 935.56 247.667 933.026 246.4C930.56 245.133 928.36 243.633 926.426 241.9C924.56 240.1 923.06 238.033 921.926 235.7C920.86 233.3 920.326 230.533 920.326 227.4C920.326 224.533 920.76 221.967 921.626 219.7C922.56 217.367 923.793 215.3 925.326 213.5C926.926 211.7 928.793 210.2 930.926 209C933.06 207.8 935.326 206.9 937.726 206.3C940.193 205.633 942.726 205.3 945.326 205.3C948.793 205.3 951.96 205.867 954.826 207C957.693 208.067 960.226 209.433 962.426 211.1L963.326 205.3H964.726L967.826 227.7L966.326 228C964.926 223.333 963.26 219.433 961.326 216.3C959.393 213.167 957.16 210.833 954.626 209.3C952.16 207.7 949.326 206.9 946.126 206.9C942.126 206.9 939.026 208 936.826 210.2C934.626 212.4 933.526 215.367 933.526 219.1C933.526 222.167 934.16 224.667 935.426 226.6C936.76 228.533 938.593 230.133 940.926 231.4C943.26 232.667 946.026 233.867 949.226 235C952.293 236.067 955.16 237.267 957.826 238.6C960.493 239.933 962.826 241.467 964.826 243.2C966.826 244.933 968.393 247 969.526 249.4C970.726 251.733 971.326 254.467 971.326 257.6C971.326 261.267 970.56 264.567 969.026 267.5C967.56 270.367 965.56 272.833 963.026 274.9C960.493 276.967 957.66 278.533 954.526 279.6C951.46 280.6 948.293 281.1 945.026 281.1ZM983.794 279.7V278.5L988.394 278.2C989.661 278.133 990.494 277.733 990.894 277C991.294 276.267 991.494 274.867 991.494 272.8V212.6C991.494 210.933 991.261 209.8 990.794 209.2C990.394 208.533 989.461 208.167 987.994 208.1L983.794 207.9V206.7H1032.29L1035.09 224.6L1033.79 225C1032.46 221.467 1031.16 218.633 1029.89 216.5C1028.69 214.3 1027.39 212.6 1025.99 211.4C1024.59 210.2 1022.99 209.4 1021.19 209C1019.46 208.533 1017.36 208.3 1014.89 208.3H1008.19V241.5H1015.69C1017.49 241.5 1018.89 241.267 1019.89 240.8C1020.89 240.267 1021.69 239.3 1022.29 237.9C1022.96 236.5 1023.63 234.5 1024.29 231.9L1025.69 231.7V253.2L1024.29 253.4C1023.76 250.733 1023.16 248.667 1022.49 247.2C1021.83 245.733 1020.96 244.7 1019.89 244.1C1018.89 243.433 1017.53 243.1 1015.79 243.1H1008.19V278.1H1017.49C1019.89 278.1 1021.93 277.867 1023.59 277.4C1025.26 276.867 1026.73 276 1027.99 274.8C1029.33 273.533 1030.56 271.8 1031.69 269.6C1032.89 267.333 1034.13 264.467 1035.39 261H1036.69L1034.99 279.7H983.794ZM1106.01 281.1C1099.74 281.1 1094.21 279.733 1089.41 277C1084.61 274.2 1080.84 270.1 1078.11 264.7C1075.37 259.233 1074.01 252.467 1074.01 244.4C1074.01 238.333 1074.87 232.9 1076.61 228.1C1078.41 223.3 1080.87 219.2 1084.01 215.8C1087.14 212.4 1090.84 209.8 1095.11 208C1099.44 206.2 1104.14 205.3 1109.21 205.3C1113.47 205.3 1117.14 206.133 1120.21 207.8C1123.34 209.4 1125.84 211.167 1127.71 213.1L1129.01 205.2H1130.41L1134.81 229.4L1133.31 229.8C1131.57 225.467 1129.54 221.6 1127.21 218.2C1124.87 214.733 1122.21 212 1119.21 210C1116.27 207.933 1112.94 206.9 1109.21 206.9C1106.41 206.9 1103.91 207.633 1101.71 209.1C1099.57 210.567 1097.77 212.8 1096.31 215.8C1094.84 218.8 1093.71 222.6 1092.91 227.2C1092.17 231.733 1091.81 237.067 1091.81 243.2C1091.81 249.267 1092.24 254.5 1093.11 258.9C1094.04 263.3 1095.31 266.967 1096.91 269.9C1098.51 272.767 1100.41 274.9 1102.61 276.3C1104.81 277.633 1107.14 278.3 1109.61 278.3C1111.14 278.3 1112.61 278.167 1114.01 277.9C1115.41 277.567 1116.74 277.1 1118.01 276.5C1119.27 275.9 1120.34 275.1 1121.21 274.1V251.5C1121.21 249.633 1121.01 248.4 1120.61 247.8C1120.21 247.133 1119.31 246.767 1117.91 246.7L1113.41 246.5V245.3H1143.51V246.5L1139.51 246.7C1138.24 246.767 1137.37 247.133 1136.91 247.8C1136.44 248.467 1136.21 249.767 1136.21 251.7V280.3H1135.11L1123.21 274.8C1121.61 276.2 1119.97 277.367 1118.31 278.3C1116.64 279.233 1114.81 279.933 1112.81 280.4C1110.87 280.867 1108.61 281.1 1106.01 281.1ZM1187.59 281.1C1180.66 281.1 1174.63 279.6 1169.49 276.6C1164.36 273.6 1160.39 269.367 1157.59 263.9C1154.86 258.433 1153.49 251.967 1153.49 244.5C1153.49 236.033 1154.93 228.9 1157.79 223.1C1160.66 217.233 1164.76 212.8 1170.09 209.8C1175.43 206.8 1181.69 205.3 1188.89 205.3C1195.56 205.3 1201.39 206.733 1206.39 209.6C1211.39 212.4 1215.26 216.467 1217.99 221.8C1220.79 227.133 1222.19 233.667 1222.19 241.4C1222.19 247.333 1221.43 252.733 1219.89 257.6C1218.36 262.467 1216.09 266.667 1213.09 270.2C1210.16 273.667 1206.53 276.367 1202.19 278.3C1197.93 280.167 1193.06 281.1 1187.59 281.1ZM1189.19 279.4C1191.86 279.4 1194.16 278.833 1196.09 277.7C1198.03 276.5 1199.59 274.567 1200.79 271.9C1202.06 269.167 1202.99 265.533 1203.59 261C1204.19 256.467 1204.49 250.767 1204.49 243.9C1204.49 237.033 1204.09 231.233 1203.29 226.5C1202.56 221.767 1201.46 217.967 1199.99 215.1C1198.53 212.167 1196.73 210.067 1194.59 208.8C1192.46 207.533 1189.99 206.9 1187.19 206.9C1184.59 206.9 1182.29 207.5 1180.29 208.7C1178.29 209.833 1176.59 211.767 1175.19 214.5C1173.86 217.167 1172.83 220.767 1172.09 225.3C1171.43 229.833 1171.09 235.433 1171.09 242.1C1171.09 248.967 1171.49 254.8 1172.29 259.6C1173.16 264.333 1174.39 268.167 1175.99 271.1C1177.59 274.033 1179.49 276.167 1181.69 277.5C1183.96 278.767 1186.46 279.4 1189.19 279.4ZM1235.34 279.7V278.5L1239.94 278.2C1241.21 278.133 1242.04 277.733 1242.44 277C1242.84 276.267 1243.04 274.867 1243.04 272.8V212.6C1243.04 210.933 1242.81 209.8 1242.34 209.2C1241.94 208.533 1241.01 208.167 1239.54 208.1L1235.34 207.9V206.7H1268.64V207.9L1263.44 208.1C1262.04 208.167 1261.07 208.533 1260.54 209.2C1260.01 209.867 1259.74 211.133 1259.74 213V278.1H1269.04C1271.57 278.1 1273.77 277.767 1275.64 277.1C1277.57 276.367 1279.27 275.233 1280.74 273.7C1282.21 272.167 1283.54 270.133 1284.74 267.6C1285.94 265.067 1287.11 261.933 1288.24 258.2H1289.64L1287.14 279.7H1235.34ZM1301.26 279.7V278.5L1305.86 278.2C1307.12 278.133 1307.96 277.733 1308.36 277C1308.76 276.267 1308.96 274.867 1308.96 272.8V212.6C1308.96 210.933 1308.72 209.8 1308.26 209.2C1307.86 208.533 1306.92 208.167 1305.46 208.1L1301.26 207.9V206.7H1333.06C1337.06 206.7 1340.92 207.067 1344.66 207.8C1348.39 208.467 1351.86 209.633 1355.06 211.3C1358.26 212.9 1361.06 215.067 1363.46 217.8C1365.92 220.533 1367.82 223.9 1369.16 227.9C1370.56 231.833 1371.26 236.5 1371.26 241.9C1371.26 248.767 1370.29 254.6 1368.36 259.4C1366.42 264.2 1363.66 268.1 1360.06 271.1C1356.52 274.1 1352.26 276.3 1347.26 277.7C1342.32 279.033 1336.82 279.7 1330.76 279.7H1301.26ZM1331.06 278.1C1334.72 278.1 1337.92 277.533 1340.66 276.4C1343.46 275.267 1345.82 273.367 1347.76 270.7C1349.69 267.967 1351.12 264.267 1352.06 259.6C1353.06 254.933 1353.56 249.1 1353.56 242.1C1353.56 234.167 1352.69 227.733 1350.96 222.8C1349.22 217.8 1346.76 214.133 1343.56 211.8C1340.36 209.467 1336.59 208.3 1332.26 208.3H1325.66V277.8C1326.26 277.867 1327.02 277.933 1327.96 278C1328.89 278.067 1329.92 278.1 1331.06 278.1Z" fill="url(#paint8_linear_32_14)"/>
<defs>
<linearGradient id="paint0_linear_32_14" x1="190.448" y1="160.7" x2="190.448" y2="183.821" gradientUnits="userSpaceOnUse">
<stop stop-color="#F4D059"/>
<stop offset="1" stop-color="#F59A33"/>
</linearGradient>
<linearGradient id="paint1_linear_32_14" x1="211.988" y1="183.524" x2="211.988" y2="290.977" gradientUnits="userSpaceOnUse">
<stop stop-color="#F4D059"/>
<stop offset="1" stop-color="#F3702A"/>
</linearGradient>
<linearGradient id="paint2_linear_32_14" x1="234.751" y1="160.7" x2="234.751" y2="160.7" gradientUnits="userSpaceOnUse">
<stop stop-color="#F4D059"/>
<stop offset="1" stop-color="#F59A33"/>
</linearGradient>
<linearGradient id="paint3_linear_32_14" x1="190.448" y1="247.566" x2="190.448" y2="312.7" gradientUnits="userSpaceOnUse">
<stop stop-color="#F4D059"/>
<stop offset="1" stop-color="#F3702A"/>
</linearGradient>
<linearGradient id="paint4_linear_32_14" x1="234.751" y1="232.655" x2="234.751" y2="312.7" gradientUnits="userSpaceOnUse">
<stop stop-color="#F4D059"/>
<stop offset="1" stop-color="#F3702A"/>
</linearGradient>
<linearGradient id="paint5_linear_32_14" x1="190.437" y1="199.967" x2="190.437" y2="236.083" gradientUnits="userSpaceOnUse">
<stop stop-color="#F4D059"/>
<stop offset="1" stop-color="#F3702A"/>
</linearGradient>
<linearGradient id="paint6_linear_32_14" x1="212.594" y1="223.891" x2="212.594" y2="249.105" gradientUnits="userSpaceOnUse">
<stop stop-color="#F4D059"/>
<stop offset="1" stop-color="#F3702A"/>
</linearGradient>
<linearGradient id="paint7_linear_32_14" x1="234.751" y1="199.967" x2="234.751" y2="223.891" gradientUnits="userSpaceOnUse">
<stop stop-color="#F4D059"/>
<stop offset="1" stop-color="#F3702A"/>
</linearGradient>
<linearGradient id="paint8_linear_32_14" x1="833.883" y1="136.7" x2="833.883" y2="336.7" gradientUnits="userSpaceOnUse">
<stop stop-color="#F4D059"/>
<stop offset="1" stop-color="#F3702A"/>
</linearGradient>
<clipPath id="clip0_32_14">
<rect width="79" height="152" fill="white" transform="translate(172.883 160.7)"/>
</clipPath>
</defs>
</svg>
